<?xml version="1.0" encoding="utf-8"?>
<!-- Generator: Adobe Illustrator 21.0.0, SVG Export Plug-In . SVG Version: 6.00 Build 0)  -->
<svg version="1.1" id="Layer_1" xmlns="http://www.w3.org/2000/svg" xmlns:xlink="http://www.w3.org/1999/xlink" x="0px" y="0px"
	 viewBox="0 0 500 200" style="enable-background:new 0 0 500 200;" xml:space="preserve">
<style type="text/css">
	.st0{enable-background:new    ;}
	.st1{fill:#FFFFFF;}
</style>
<g class="st0">
	<path class="st1" d="M55,157.7L87.6,40.8l31,93.4l54.9-93.6l2.8,117H164l-1-77l-47.6,81.6L88.1,80.7l-20.4,77H55z"/>
</g>
<g class="st0">
	<path class="st1" d="M250.6,88.8h11.9l-8.5,68.9h-11.9l1.2-9.6c-2.2,3-5.1,6.1-8.6,8.1c-5,2.8-10.1,3.5-14.3,3.5
		c-8.3,0-15.9-1.7-22.4-8.5c-5.1-5.5-9-13.3-9-24.6c0-14.1,5.5-24.4,11.9-30.5c6.5-6.1,14.4-9,24.7-9c4.6,0,9.6,0.7,14.6,3.3
		c4.1,2.2,7,4.8,9.1,8.1L250.6,88.8z M210.2,104.2c-5.1,4.8-8.8,13.1-8.8,21.6c0,6.8,2.5,13.8,7.1,18.1c4.1,4,9.1,5.1,13.9,5.1
		c7.5,0,13.1-2.5,17.1-6.8c5-5.1,7.8-13.9,7.8-22.4c0-9.3-4.1-14.4-6.5-16.6c-2.8-2.7-7.3-5.5-14.1-5.5
		C219.1,97.8,213.6,100.9,210.2,104.2z"/>
	<path class="st1" d="M338.3,88.8h11.9l-8.5,68.9h-11.9l1.2-9.6c-2.2,3-5.1,6.1-8.6,8.1c-5,2.8-10.1,3.5-14.3,3.5
		c-8.3,0-15.9-1.7-22.4-8.5c-5.1-5.5-9-13.3-9-24.6c0-14.1,5.5-24.4,11.9-30.5c6.5-6.1,14.4-9,24.7-9c4.6,0,9.6,0.7,14.6,3.3
		c4.1,2.2,7,4.8,9.1,8.1L338.3,88.8z M297.8,104.2c-5.1,4.8-8.8,13.1-8.8,21.6c0,6.8,2.5,13.8,7.1,18.1c4.1,4,9.1,5.1,13.9,5.1
		c7.5,0,13.1-2.5,17.1-6.8c5-5.1,7.8-13.9,7.8-22.4c0-9.3-4.1-14.4-6.5-16.6c-2.8-2.7-7.3-5.5-14.1-5.5
		C306.7,97.8,301.3,100.9,297.8,104.2z"/>
</g>
<g class="st0">
	<path class="st1" d="M388.6,46.6c4.4,0,11.3,0.2,16.4,5.3c2.8,2.8,5.1,7.1,5.1,13.5c0,7-2.4,13-6.1,16.5c-2.8,2.6-8.2,5.6-18.7,5.6
		H377l-2.7,22.1h-14.6l7.8-63.1h21.1V46.6z M378.3,75.6h5.2c3.1,0,6.7-0.3,9.2-2.7c2.2-2.1,2.5-4.9,2.5-6.5c0-1.8-0.4-3.9-2.1-5.5
		c-2.3-2.2-6.1-2.4-8.2-2.4h-4.3L378.3,75.6z"/>
	<path class="st1" d="M431.1,67.5l-5.2,42.2h-13.6l5.2-42.2H431.1z M426.1,41.6c4.4,0,7.9,3.5,7.9,7.9s-3.5,7.9-7.9,7.9
		s-7.9-3.5-7.9-7.9S421.6,41.6,426.1,41.6z"/>
</g>
</svg>
